<svg xmlns="http://www.w3.org/2000/svg" xmlns:xlink="http://www.w3.org/1999/xlink" width="48" height="54" viewBox="0 0 48 54">
  <metadata><?xpacket begin="﻿" id="W5M0MpCehiHzreSzNTczkc9d"?>
<x:xmpmeta xmlns:x="adobe:ns:meta/" x:xmptk="Adobe XMP Core 5.6-c140 79.160451, 2017/05/06-01:08:21        ">
   <rdf:RDF xmlns:rdf="http://www.w3.org/1999/02/22-rdf-syntax-ns#">
      <rdf:Description rdf:about=""/>
   </rdf:RDF>
</x:xmpmeta>
                                                                                                    
                                                                                                    
                                                                                                    
                                                                                                    
                                                                                                    
                                                                                                    
                                                                                                    
                                                                                                    
                                                                                                    
                                                                                                    
                                                                                                    
                                                                                                    
                                                                                                    
                                                                                                    
                                                                                                    
                                                                                                    
                                                                                                    
                                                                                                    
                                                                                                    
                                                                                                    
                           
<?xpacket end="w"?></metadata>
<defs>
    <style>
      .cls-1 {
        fill-rule: evenodd;
        filter: url(#filter);
      }
    </style>
    <filter id="filter" x="774" y="1188" width="48" height="54" filterUnits="userSpaceOnUse">
      <feFlood result="flood" flood-color="#fff"/>
      <feComposite result="composite" operator="in" in2="SourceGraphic"/>
      <feBlend result="blend" in2="SourceGraphic"/>
    </filter>
  </defs>
  <path id="call" class="cls-1" d="M820.853,1229.5l-0.094-.08s-5.832-3.9-8.417-5.64a5.3,5.3,0,0,0-2.993-1.02,3.781,3.781,0,0,0-2.3.74l-0.11.11a16.335,16.335,0,0,1-1.558,1.45,2.8,2.8,0,0,1-3.769-.41c-1.537-1.44-10.061-12-12.731-15.6a2.621,2.621,0,0,1-.642-2c0.212-1.29,1.743-2.35,2.567-2.92l0.291-.2a4,4,0,0,0,1.3-4.67c-0.35-.92-3.8-8.33-4.215-9.16a3.333,3.333,0,0,0-3.22-2.1,11.583,11.583,0,0,0-5.788,1.74l-0.41.28c-1.662,1.15-4.757,3.29-4.757,7.77,0,5.69,4.232,14.15,12.938,25.86,9.309,12.52,20.393,18.35,24.954,18.35,4.18,0,8.224-5.14,9.527-7.63A3.908,3.908,0,0,0,820.853,1229.5Z" transform="translate(-774 -1188)"/>
</svg>
