<svg xmlns="http://www.w3.org/2000/svg" xmlns:xlink="http://www.w3.org/1999/xlink" width="50" height="38" viewBox="0 0 50 38">
  <metadata><?xpacket begin="﻿" id="W5M0MpCehiHzreSzNTczkc9d"?>
<x:xmpmeta xmlns:x="adobe:ns:meta/" x:xmptk="Adobe XMP Core 5.6-c140 79.160451, 2017/05/06-01:08:21        ">
   <rdf:RDF xmlns:rdf="http://www.w3.org/1999/02/22-rdf-syntax-ns#">
      <rdf:Description rdf:about=""/>
   </rdf:RDF>
</x:xmpmeta>
                                                                                                    
                                                                                                    
                                                                                                    
                                                                                                    
                                                                                                    
                                                                                                    
                                                                                                    
                                                                                                    
                                                                                                    
                                                                                                    
                                                                                                    
                                                                                                    
                                                                                                    
                                                                                                    
                                                                                                    
                                                                                                    
                                                                                                    
                                                                                                    
                                                                                                    
                                                                                                    
                           
<?xpacket end="w"?></metadata>
<defs>
    <style>
      .cls-1 {
        fill-rule: evenodd;
        filter: url(#filter);
      }
    </style>
    <filter id="filter" x="324" y="1198" width="50" height="38" filterUnits="userSpaceOnUse">
      <feFlood result="flood" flood-color="#fff"/>
      <feComposite result="composite" operator="in" in2="SourceGraphic"/>
      <feBlend result="blend" in2="SourceGraphic"/>
    </filter>
  </defs>
  <path id="camera" class="cls-1" d="M370,1204h-8.272l-4.808-4.82c-0.006-.01-0.011-0.01-0.016-0.02H356.9a3.963,3.963,0,0,0-2.811-1.16h-10a3.979,3.979,0,0,0-2.93,1.29l0-.01-4.709,4.72H328a4,4,0,0,0-4,4v24a4,4,0,0,0,4,4h42a4,4,0,0,0,4-4v-24A4,4,0,0,0,370,1204Zm-21,26a11,11,0,1,1,11-11A11.016,11.016,0,0,1,349,1230Zm0-20a9,9,0,1,0,9,9A9,9,0,0,0,349,1210Z" transform="translate(-324 -1198)"/>
</svg>
